<svg width="85" height="85" viewBox="0 0 85 85" fill="none" xmlns="http://www.w3.org/2000/svg">
<path d="M25.695 34.942H68.75" stroke="white" stroke-width="2.5" stroke-miterlimit="10" stroke-linecap="round" stroke-linejoin="round"/>
<path d="M47.379 24.028V46.701" stroke="white" stroke-width="2.5" stroke-miterlimit="10"/>
<path d="M60.2681 24.028L57.287 45.083" stroke="white" stroke-width="2.5" stroke-miterlimit="10"/>
<path d="M34.5161 23.963L38.0521 48.104" stroke="white" stroke-width="2.5" stroke-miterlimit="10"/>
<path d="M67.873 56.191H29.336C26.799 56.191 26.406 50.566 30.356 49.695L65.778 43.877L73.272 23.706H22.177" stroke="white" stroke-width="2.5" stroke-miterlimit="10" stroke-linejoin="round"/>
<path d="M28.007 44.398L19.033 15.683H11.728" stroke="white" stroke-width="2.5" stroke-miterlimit="10" stroke-linecap="round" stroke-linejoin="round"/>
<path d="M32.996 69.316C35.135 69.316 36.869 67.582 36.869 65.443C36.869 63.304 35.135 61.57 32.996 61.57C30.857 61.57 29.123 63.304 29.123 65.443C29.123 67.582 30.857 69.316 32.996 69.316Z" stroke="white" stroke-width="2.5" stroke-miterlimit="10" stroke-linecap="round" stroke-linejoin="round"/>
<path d="M61.5141 69.316C63.6531 69.316 65.3871 67.582 65.3871 65.443C65.3871 63.304 63.6531 61.57 61.5141 61.57C59.3751 61.57 57.6411 63.304 57.6411 65.443C57.6411 67.582 59.3751 69.316 61.5141 69.316Z" stroke="white" stroke-width="2.5" stroke-miterlimit="10" stroke-linecap="round" stroke-linejoin="round"/>
</svg>
